<svg xmlns="http://www.w3.org/2000/svg" xmlns:xlink="http://www.w3.org/1999/xlink" width="1920" height="1080" viewBox="0 0 1920 1080">
  <defs>
    <clipPath id="clip-path">
      <rect width="331" height="1080" fill="none"/>
    </clipPath>
    <clipPath id="clip-path-2">
      <rect id="Rectangle_3" data-name="Rectangle 3" width="21" height="21" transform="translate(0.5 0.5)" fill="#f1f5f9"/>
    </clipPath>
    <clipPath id="clip-Payments_-_Admin_Desktop">
      <rect width="1920" height="1080"/>
    </clipPath>
  </defs>
  <g id="Payments_-_Admin_Desktop" data-name="Payments - Admin Desktop" clip-path="url(#clip-Payments_-_Admin_Desktop)">
    <rect width="1920" height="1080" fill="#131b23"/>
    <g id="Repeat_Grid_1" data-name="Repeat Grid 1" clip-path="url(#clip-path)">
      <rect id="Rectangle_1" data-name="Rectangle 1" width="331" height="1080" fill="#203446"/>
    </g>
    <line id="Line_1" data-name="Line 1" x2="31.712" transform="translate(383.5 50.292)" fill="none" stroke="#f1f5f9" stroke-width="4"/>
    <line id="Line_2" data-name="Line 2" x2="31.712" transform="translate(383.5 60)" fill="none" stroke="#f1f5f9" stroke-width="4"/>
    <line id="Line_3" data-name="Line 3" x2="31.712" transform="translate(383.5 69.708)" fill="none" stroke="#f1f5f9" stroke-width="4"/>
    <rect id="Rectangle_2" data-name="Rectangle 2" width="279" height="40" rx="12" transform="translate(468 40)" fill="#203446"/>
    <g id="Group_2" data-name="Group 2" transform="translate(701.5 49.5)">
      <g id="Group_1" data-name="Group 1" clip-path="url(#clip-path-2)">
        <path id="Path_1" data-name="Path 1" d="M21.2,19.78,14.428,13A8.076,8.076,0,1,0,13,14.428L19.78,21.2A1.008,1.008,0,0,0,21.2,19.78M8.063,14.109a6.047,6.047,0,1,1,6.047-6.047,6.053,6.053,0,0,1-6.047,6.047" fill="#f1f5f9"/>
      </g>
    </g>
    <g id="web_logotype" data-name="web logotype" transform="translate(78.717 40)">
      <g id="Group_3" data-name="Group 3" transform="translate(37.205 2.34)">
        <path id="Path_2" data-name="Path 2" d="M347.763,40.181V36.522c0-3.735,1.6-6.4,6.555-6.4h1.449v-9.3H353.4c-10.138,0-15.625,6.1-15.625,16.769v2.591H331.07v7.774h6.708V65.791a9.985,9.985,0,0,0,9.985,9.985h0V47.954h14.482V75.776h9.985v-35.6Z" transform="translate(-331.07 -20.82)" fill="#f1f5f9"/>
        <path id="Path_3" data-name="Path 3" d="M689.18,210.266h9.376c0,2.058,1.753,4.268,5.259,4.268,2.9,0,5.107-1.449,5.107-3.506,0-1.524-1.219-2.287-3.887-2.972l-4.726-1.143c-9.147-2.439-10.367-7.546-10.367-11.281,0-5.489,5.717-10.672,13.949-10.672,6.479,0,14.1,3.125,14.025,11.586h-9.528c0-2.439-1.981-3.735-4.345-3.735s-4.116,1.3-4.116,3.125c0,1.677,1.525,2.515,3.506,3.049l5.87,1.524c8.538,2.287,9.6,7.623,9.6,10.519,0,7.47-7.623,11.357-14.94,11.357S689.255,218.116,689.18,210.266Z" transform="translate(-648.936 -166.514)" fill="#f1f5f9"/>
        <path id="Path_4" data-name="Path 4" d="M927.92,203.559c0-11.281,9.147-18.6,19.514-18.6a18.028,18.028,0,0,1,15.016,7.623l-7.546,5.259a9.4,9.4,0,0,0-7.393-3.583,9.092,9.092,0,0,0-9.451,9.3,9.277,9.277,0,0,0,9.451,9.528A9.4,9.4,0,0,0,954.9,209.5l7.546,5.259a18.031,18.031,0,0,1-15.016,7.623C937.066,222.386,927.92,214.839,927.92,203.559Z" transform="translate(-860.846 -166.514)" fill="#f1f5f9"/>
        <path id="Path_5" data-name="Path 5" d="M1227.438,185.884h9.985v25.611a9.985,9.985,0,0,1-9.985,9.985h0v-5.107a14.089,14.089,0,0,1-11.738,6.021c-9.833,0-17.15-7.623-17.15-18.674s7.165-18.75,17.379-18.75c4.574,0,9.147,1.982,11.51,5.64v-4.726Zm-.3,17.836a9.189,9.189,0,1,0-18.37,0,9.129,9.129,0,0,0,9.146,9.376A9.239,9.239,0,0,0,1227.134,203.719Z" transform="translate(-1101.063 -166.523)" fill="#f1f5f9"/>
      </g>
      <rect id="Rectangle_4" data-name="Rectangle 4" width="9.985" height="9.985" transform="translate(68.381 2.34)" fill="#f1f5f9"/>
      <rect id="Rectangle_5" data-name="Rectangle 5" width="14.553" height="14.553" transform="translate(0 14.553)" fill="#f1f5f9"/>
      <rect id="Rectangle_6" data-name="Rectangle 6" width="14.553" height="14.553" transform="translate(14.553 29.105)" fill="#f1f5f9"/>
      <rect id="Rectangle_7" data-name="Rectangle 7" width="14.553" height="14.553" transform="translate(0 43.658)" fill="#f1f5f9"/>
      <rect id="Rectangle_8" data-name="Rectangle 8" width="14.553" height="14.553" transform="translate(14.553)" fill="#f1f5f9"/>
    </g>
    <g id="settings_icon" data-name="settings icon" transform="translate(1703 43.75)">
      <path id="Path_6" data-name="Path 6" d="M32.451,12.562H29.385a1.047,1.047,0,0,1-.74-1.787l2.168-2.168a1.047,1.047,0,0,0,0-1.481L26.371,2.685a1.048,1.048,0,0,0-1.481,0L22.723,4.852a1.026,1.026,0,0,1-.733.308,1.046,1.046,0,0,1-1.054-1.049V1.047A1.046,1.046,0,0,0,19.889,0H13.608a1.046,1.046,0,0,0-1.047,1.047V4.113a1.046,1.046,0,0,1-1.054,1.049,1.026,1.026,0,0,1-.733-.308L8.606,2.686a1.048,1.048,0,0,0-1.481,0L2.684,7.127a1.047,1.047,0,0,0,0,1.481l2.168,2.168a1.047,1.047,0,0,1-.74,1.787H1.047A1.046,1.046,0,0,0,0,13.61V19.89a1.046,1.046,0,0,0,1.047,1.047H4.113a1.047,1.047,0,0,1,.74,1.787L2.686,24.892a1.047,1.047,0,0,0,0,1.481l4.441,4.441a1.048,1.048,0,0,0,1.481,0l2.168-2.168a1.026,1.026,0,0,1,.733-.308,1.046,1.046,0,0,1,1.054,1.049v3.066A1.046,1.046,0,0,0,13.61,33.5H19.89a1.046,1.046,0,0,0,1.047-1.047V29.387a1.046,1.046,0,0,1,1.054-1.049,1.026,1.026,0,0,1,.733.308l2.168,2.168a1.048,1.048,0,0,0,1.481,0l4.441-4.441a1.047,1.047,0,0,0,0-1.481l-2.168-2.168a1.047,1.047,0,0,1,.74-1.787h3.066A1.046,1.046,0,0,0,33.5,19.89V13.61a1.046,1.046,0,0,0-1.047-1.047ZM31.4,18.843H29.385A3.14,3.14,0,0,0,27.164,24.2l1.427,1.427-2.961,2.961L24.2,27.164a3.112,3.112,0,0,0-2.213-.922,3.149,3.149,0,0,0-3.148,3.142V31.4H14.655V29.384a3.149,3.149,0,0,0-3.148-3.142,3.109,3.109,0,0,0-2.213.922L7.867,28.591,4.907,25.631,6.334,24.2a3.14,3.14,0,0,0-2.221-5.361H2.094V14.655H4.113A3.14,3.14,0,0,0,6.334,9.295L4.907,7.867,7.867,4.907,9.295,6.334a3.112,3.112,0,0,0,2.213.922,3.149,3.149,0,0,0,3.148-3.142V2.095h4.187V4.114a3.149,3.149,0,0,0,3.148,3.142A3.109,3.109,0,0,0,24.2,6.334l1.427-1.427,2.961,2.961L27.164,9.295a3.14,3.14,0,0,0,2.221,5.361H31.4v4.187Z" fill="#f1f5f9"/>
      <path id="Path_7" data-name="Path 7" d="M116.281,110a6.281,6.281,0,1,0,6.281,6.281A6.281,6.281,0,0,0,116.281,110Zm0,10.468a4.187,4.187,0,1,1,4.187-4.187A4.192,4.192,0,0,1,116.281,120.468Z" transform="translate(-99.532 -99.532)" fill="#f1f5f9"/>
    </g>
    <path id="profile_icon" data-name="profile icon" d="M16.75,0A16.751,16.751,0,1,0,33.5,16.75,16.748,16.748,0,0,0,16.75,0ZM27.219,28.147v-.982c0-9.233-20.937-9.233-20.937,0v.982a15.476,15.476,0,1,1,20.937,0ZM16.75,5.681a6.372,6.372,0,1,0,6.372,6.372A6.372,6.372,0,0,0,16.75,5.681Z" transform="translate(1772.288 43.75)" fill="#f1f5f9" stroke="#f1f5f9" stroke-width="1"/>
    <g id="Ellipse_1" data-name="Ellipse 1" transform="translate(95 223)" fill="#fff" stroke="#707070" stroke-width="1">
      <circle cx="70.5" cy="70.5" r="70.5" stroke="none"/>
      <circle cx="70.5" cy="70.5" r="70" fill="none"/>
    </g>
    <text id="Admin" transform="translate(136 465)" fill="#4ce4cb" font-size="20" font-family="SofiaPro-Regular, Sofia Pro"><tspan x="0" y="0">Admin</tspan></text>
    <text id="Jane_Doe" data-name="Jane Doe" transform="translate(90 436)" fill="#f1f5f9" font-size="37" font-family="SofiaPro-Bold, Sofia Pro" font-weight="700"><tspan x="0" y="0">Jane Doe</tspan></text>
    <rect id="Rectangle_12" data-name="Rectangle 12" width="331" height="68" transform="translate(0 726)" fill="#6d32ec"/>
    <text id="Dashboard" transform="translate(121.688 569)" fill="#f1f5f9" font-size="30" font-family="SofiaPro-Regular, Sofia Pro"><tspan x="0" y="0">Dashboard</tspan></text>
    <text id="Members" transform="translate(124.191 670.167)" fill="#f1f5f9" font-size="30" font-family="SofiaPro-Regular, Sofia Pro"><tspan x="0" y="0">Members</tspan></text>
    <text id="Payments" transform="translate(123.52 770.001)" fill="#f1f5f9" font-size="30" font-family="SofiaPro-Regular, Sofia Pro"><tspan x="0" y="0">Payments</tspan></text>
    <text id="Invoices" transform="translate(122.781 869.86)" fill="#f1f5f9" font-size="30" font-family="SofiaPro-Regular, Sofia Pro"><tspan x="0" y="0">Invoices</tspan></text>
    <path id="Path_8" data-name="Path 8" d="M359,0" transform="translate(0.5 956.5)" fill="none" stroke="#2e3750" stroke-width="1"/>
    <rect id="Rectangle_9" data-name="Rectangle 9" width="331" height="64" transform="translate(0 1016)" fill="#273f54"/>
    <text id="Need_Help_" data-name="Need Help?" transform="translate(34 1055)" fill="#f1f5f9" font-size="20" font-family="SofiaPro-Regular, Sofia Pro"><tspan x="0" y="0">Need Help?</tspan></text>
    <rect id="Rectangle_10" data-name="Rectangle 10" width="145" height="32" rx="7" transform="translate(172 1032)" fill="#6d32ec"/>
    <text id="Submit_a_Ticket" data-name="Submit a Ticket" transform="translate(190 1054)" fill="#f1f5f9" font-size="16" font-family="SofiaPro-Regular, Sofia Pro"><tspan x="0" y="0">Submit a Ticket</tspan></text>
    <g id="home_icon" data-name="home icon" transform="translate(57.725 544.833)">
      <path id="Path_9" data-name="Path 9" d="M15.545.451a1.587,1.587,0,0,0-2.217,0l-13.1,13.1a.681.681,0,1,0,.964.958l13.1-13.1a.193.193,0,0,1,.288,0l13.1,13.1a.681.681,0,1,0,.958-.958Zm0,0" transform="translate(0 0)" fill="#f1f5f9"/>
      <path id="Path_10" data-name="Path 10" d="M198.777,756.737a.681.681,0,0,0-.67.69v11.261a1.579,1.579,0,0,0,1.568,1.568h6.13a.681.681,0,0,0,.683-.684v-5.446a.415.415,0,0,1,.034-.209h4.85c0,.072.034.117.034.209v5.446a.681.681,0,0,0,.677.684h6.136a1.579,1.579,0,0,0,1.568-1.568V757.426a.681.681,0,1,0-1.36,0v11.261a.2.2,0,0,1-.209.209h-5.453v-4.769a2.782,2.782,0,0,0-.113-.831,1.233,1.233,0,0,0-.189-.388.821.821,0,0,0-.656-.348H206.1a.819.819,0,0,0-.656.343,1.276,1.276,0,0,0-.189.4,2.787,2.787,0,0,0-.106.831v4.77h-5.453a.2.2,0,0,1-.209-.209V757.428a.68.68,0,0,0-.69-.689l-.018,0Zm0,0" transform="translate(-194.499 -742.921)" fill="#f1f5f9"/>
      <path id="Path_11" data-name="Path 11" d="M1144.283,225.85a.683.683,0,0,0,0,1.367h2.09a.342.342,0,0,1,.362.355v2.09a.681.681,0,1,0,1.36,0v-2.09a1.733,1.733,0,0,0-1.722-1.722Zm0,0" transform="translate(-1122.763 -221.734)" fill="#f1f5f9"/>
    </g>
    <g id="members_icon" data-name="members icon" transform="translate(57.722 647.334)">
      <path id="Path_12" data-name="Path 12" d="M117.486,32.572a5.286,5.286,0,1,0-5.286-5.286A5.285,5.285,0,0,0,117.486,32.572Zm0-8.683a3.4,3.4,0,1,1-3.4,3.4A3.4,3.4,0,0,1,117.486,23.888Z" transform="translate(-94.228 -18.476)" fill="#f1f5f9"/>
      <path id="Path_13" data-name="Path 13" d="M120.72,94.834A12.5,12.5,0,0,1,121.9,96.22a6.687,6.687,0,0,1,9.329,7.282h1.784a8.6,8.6,0,0,0,.083-1.174,8.457,8.457,0,0,0-12.378-7.493Z" transform="translate(-101.383 -78.834)" fill="#f1f5f9"/>
      <path id="Path_14" data-name="Path 14" d="M19.381,98.572h1.762A10.572,10.572,0,1,0,0,98.572H1.762a8.81,8.81,0,0,1,17.619,0Z" transform="translate(0 -73.904)" fill="#f1f5f9"/>
      <path id="Path_15" data-name="Path 15" d="M33.667,12.334A6.167,6.167,0,1,0,27.5,6.167,6.167,6.167,0,0,0,33.667,12.334Zm0-10.682a4.515,4.515,0,1,1-4.515,4.515,4.52,4.52,0,0,1,4.515-4.515Z" transform="translate(-23.095 0)" fill="#f1f5f9"/>
    </g>
    <g id="payments_icon" data-name="payments icon" transform="translate(58.573 746.142)">
      <g id="Path_16" data-name="Path 16" transform="translate(-15.165 -14.158)" fill="none" stroke-miterlimit="10">
        <path d="M44.732,31.04,42.71,29.1a.368.368,0,0,0-.5,0l-6.312,6.065L33.62,32.978a.368.368,0,0,0-.5,0l-2.022,1.943a.334.334,0,0,0,0,.484l2.526,2.427h0l2.022,1.943a.368.368,0,0,0,.5,0l8.581-8.25a.334.334,0,0,0,0-.484Z" stroke="none"/>
        <path d="M 42.45825958251953 30.93558120727539 L 35.89366912841797 37.2431526184082 L 33.36769866943359 34.81602478027344 L 33.00666809082031 35.16293334960938 L 35.89345932006836 37.93675994873047 L 42.81695938110352 31.28046798706055 L 42.45825958251953 30.93558120727539 M 42.45827484130859 28.99750137329102 C 42.54972457885742 28.99750137329102 42.64117431640625 29.03086853027344 42.71038055419922 29.09760284423828 L 44.73215103149414 31.040283203125 L 44.72721099853516 31.040283203125 C 44.86562347412109 31.17375183105469 44.86562347412109 31.39125442504883 44.72721099853516 31.52472305297852 L 36.14578247070312 39.77496337890625 C 36.00736999511719 39.90843200683594 35.77998352050781 39.90843200683594 35.64157104492188 39.77496337890625 L 31.09381103515625 35.4051513671875 C 30.95540237426758 35.27168273925781 30.95540237426758 35.05418395996094 31.09381103515625 34.92072296142578 L 33.11558151245117 32.97803497314453 C 33.25399398803711 32.84455871582031 33.48138427734375 32.84455871582031 33.61978912353516 32.97803497314453 L 35.89368057250977 35.16293334960938 L 42.20616912841797 29.09760284423828 C 42.27537536621094 29.03086853027344 42.36682510375977 28.99750137329102 42.45827484130859 28.99750137329102 Z" stroke="none" fill="#f1f5f9"/>
      </g>
      <path id="Path_17" data-name="Path 17" d="M12.953,21.762H2.977A1.977,1.977,0,0,1,1,19.784V2.977A1.977,1.977,0,0,1,2.977,1H27.693a1.977,1.977,0,0,1,1.977,1.977v9.689" fill="none" stroke="#f1f5f9" stroke-linecap="round" stroke-miterlimit="10" stroke-width="1.5"/>
      <g id="Rectangle_11" data-name="Rectangle 11" transform="translate(21.762 3.966)" fill="none" stroke="#f1f5f9" stroke-linecap="round" stroke-miterlimit="10" stroke-width="1.5">
        <rect width="4.943" height="3.955" rx="1.977" stroke="none"/>
        <rect x="0.75" y="0.75" width="3.443" height="2.455" rx="1.227" fill="none"/>
      </g>
      <line id="Line_4" data-name="Line 4" x2="9.886" transform="translate(4.955 17.313)" fill="none" stroke="#f1f5f9" stroke-linecap="round" stroke-miterlimit="10" stroke-width="1.5"/>
      <line id="Line_5" data-name="Line 5" x2="8.898" transform="translate(4.955 14.347)" fill="none" stroke="#f1f5f9" stroke-linecap="round" stroke-miterlimit="10" stroke-width="1.5"/>
    </g>
    <g id="icon" transform="translate(38.573 824.366)">
      <path id="Path_18" data-name="Path 18" d="M33.329,47.481H21V24.77L24.77,21H40.3V34.937" fill="none" stroke="#f1f5f9" stroke-linecap="round" stroke-linejoin="round" stroke-width="1.5"/>
      <path id="Path_19" data-name="Path 19" d="M102.08,24.77H103.5V21" transform="translate(-78.689)" fill="none" stroke="#f1f5f9" stroke-linecap="round" stroke-linejoin="round" stroke-width="1.5"/>
      <line id="Line_6" data-name="Line 6" x2="11.213" transform="translate(25.044 32.569)" fill="none" stroke="#f1f5f9" stroke-linecap="round" stroke-linejoin="round" stroke-width="1.5"/>
      <line id="Line_7" data-name="Line 7" x2="11.213" transform="translate(25.044 35.913)" fill="none" stroke="#f1f5f9" stroke-linecap="round" stroke-linejoin="round" stroke-width="1.5"/>
      <line id="Line_8" data-name="Line 8" x2="7.526" transform="translate(25.044 39.257)" fill="none" stroke="#f1f5f9" stroke-linecap="round" stroke-linejoin="round" stroke-width="1.5"/>
      <line id="Line_9" data-name="Line 9" x2="5.606" transform="translate(30.65 25.881)" fill="none" stroke="#f1f5f9" stroke-linecap="round" stroke-linejoin="round" stroke-width="1.5"/>
      <line id="Line_10" data-name="Line 10" x2="11.213" transform="translate(25.044 29.225)" fill="none" stroke="#f1f5f9" stroke-linecap="round" stroke-linejoin="round" stroke-width="1.5"/>
      <line id="Line_11" data-name="Line 11" x2="7.45" transform="translate(25.044 42.6)" fill="none" stroke="#f1f5f9" stroke-linecap="round" stroke-linejoin="round" stroke-width="1.5"/>
      <path id="Path_20" data-name="Path 20" d="M607.817,667.449a2.07,2.07,0,0,0-1.984-1.134,2.107,2.107,0,0,0-1.757.712,1.33,1.33,0,0,0-.218,1.346c.193.465.7.991,1.975,1.01,2.3.033,2.286,1.55,2.286,1.55a1.778,1.778,0,0,1-1.974,1.7,2.736,2.736,0,0,1-2.445-1.282" transform="translate(-565.513 -626.281)" fill="none" stroke="#f1f5f9" stroke-linecap="round" stroke-linejoin="round" stroke-width="1.5"/>
      <line id="Line_12" data-name="Line 12" y1="0.54" transform="translate(40.307 39.351)" fill="none" stroke="#f1f5f9" stroke-linecap="round" stroke-linejoin="round" stroke-width="1.5"/>
      <line id="Line_13" data-name="Line 13" y1="0.51" transform="translate(40.307 46.522)" fill="none" stroke="#f1f5f9" stroke-linecap="round" stroke-linejoin="round" stroke-width="1.5"/>
      <circle id="Ellipse_2" data-name="Ellipse 2" cx="5.797" cy="5.797" r="5.797" transform="translate(34.6 37.395)" fill="none" stroke="#f1f5f9" stroke-linecap="round" stroke-linejoin="round" stroke-width="1.5"/>
    </g>
    <text id="Alpha_Beta_Sorority" data-name="Alpha Beta Sorority" transform="translate(78 181)" fill="#4ce4cb" font-size="20" font-family="SofiaPro-Regular, Sofia Pro"><tspan x="0" y="0">Alpha Beta Sorority</tspan></text>
    <text id="Payments-2" data-name="Payments" transform="translate(404.5 187)" fill="#f1f5f9" font-size="36" font-family="SofiaPro-Bold, Sofia Pro" font-weight="700"><tspan x="0" y="0">Payments</tspan></text>
    <text id="Recent_payments" data-name="Recent payments" transform="translate(405 217)" fill="#f1f5f9" font-size="20" font-family="SofiaPro-Light, Sofia Pro" font-weight="300"><tspan x="0" y="0">Recent payments</tspan></text>
    <rect id="Rectangle_16" data-name="Rectangle 16" width="1402" height="724" rx="21" transform="translate(404 292)" fill="#203446"/>
  </g>
</svg>
