<?xml version="1.0" encoding="UTF-8"?>
<svg id="Layer_1" data-name="Layer 1" xmlns="http://www.w3.org/2000/svg" viewBox="0 0 1918.6 786.11">
  <defs>
    <style>
      .cls-1 {
        fill: #4ce4cb;
      }
    </style>
  </defs>
  <g>
    <path class="cls-1" d="M234.87,272.4v-51.48c0-52.55,22.52-90.09,92.23-90.09h20.38V0h-33.25C171.59,0,94.38,85.8,94.38,235.94v36.46H0v109.39H94.38v250.95c0,77.59,62.9,140.49,140.49,140.49h0V381.8h203.77v391.45h140.49V272.4H234.87Z"/>
    <path class="cls-1" d="M566.25,615.59h131.91c0,28.96,24.67,60.06,74,60.06,40.75,0,71.86-20.38,71.86-49.33,0-21.45-17.16-32.17-54.7-41.83l-66.49-16.09c-128.7-34.32-145.86-106.17-145.86-158.73,0-77.22,80.44-150.14,196.26-150.14,91.16,0,198.4,43.97,197.33,163.01h-134.06c0-34.32-27.88-52.55-61.13-52.55s-57.91,18.23-57.91,43.97c0,23.59,21.45,35.39,49.33,42.9l82.58,21.45c120.12,32.18,135.13,107.25,135.13,148,0,105.1-107.25,159.8-210.2,159.8s-206.99-60.06-208.06-170.52Z"/>
    <path class="cls-1" d="M943.74,521.22c0-158.72,128.69-261.68,274.55-261.68,91.16,0,164.08,41.83,211.28,107.25l-106.17,74c-22.52-31.1-64.35-50.41-104.03-50.41-79.36,0-132.98,57.91-132.98,130.84s53.62,134.06,132.98,134.06c39.68,0,81.51-19.3,104.03-50.41l106.17,74c-47.19,65.42-120.12,107.25-211.28,107.25-145.86,0-274.55-106.17-274.55-264.9Z"/>
    <path class="cls-1" d="M1778.11,272.4h140.49v360.35c0,77.59-62.9,140.49-140.49,140.49h0v-71.86c-33.25,51.48-97.59,84.72-165.16,84.72-138.35,0-241.31-107.25-241.31-262.75s100.81-263.82,244.52-263.82c64.35,0,128.7,27.88,161.94,79.36v-66.49Zm-4.29,250.96c0-76.14-61.13-132.98-130.84-132.98s-127.62,60.06-127.62,132.98,54.7,131.91,128.7,131.91,129.77-60.06,129.77-131.91Z"/>
  </g>
  <rect class="cls-1" x="438.64" y="0" width="140.49" height="140.49"/>
</svg>