<?xml version="1.0" encoding="UTF-8"?>
<svg id="Layer_2" data-name="Layer 2" xmlns="http://www.w3.org/2000/svg" xmlns:xlink="http://www.w3.org/1999/xlink" viewBox="0 0 795.11 188.69">
  <defs>
    <style>
      .cls-1 {
        fill: url(#linear-gradient-2);
      }

      .cls-2 {
        letter-spacing: -.05em;
      }

      .cls-3 {
        letter-spacing: -.09em;
      }

      .cls-4 {
        letter-spacing: -.05em;
      }

      .cls-5 {
        letter-spacing: -.07em;
      }

      .cls-6 {
        fill: url(#linear-gradient-3);
      }

      .cls-7 {
        fill: url(#linear-gradient);
      }

      .cls-8 {
        fill: #061412;
        font-family: Inter-Bold, Inter;
        font-size: 159.47px;
        font-weight: 700;
      }
    </style>
    <linearGradient id="linear-gradient" x1="-613.72" y1="712.88" x2="-533.39" y2="712.88" gradientTransform="translate(-40.14 -817.57) rotate(-45)" gradientUnits="userSpaceOnUse">
      <stop offset="0" stop-color="#7ace46"/>
      <stop offset="1" stop-color="#3aa38f"/>
    </linearGradient>
    <linearGradient id="linear-gradient-2" x1="-613.72" y1="756.35" x2="-533.39" y2="756.35" gradientTransform="translate(-40.14 -817.57) rotate(-45)" gradientUnits="userSpaceOnUse">
      <stop offset="0" stop-color="#3c7c13"/>
      <stop offset="1" stop-color="#3aa38f"/>
    </linearGradient>
    <linearGradient id="linear-gradient-3" x1="-533.39" y1="669.41" x2="-613.72" y2="669.41" xlink:href="#linear-gradient"/>
  </defs>
  <g id="Layer_1-2" data-name="Layer 1">
    <text class="cls-8" transform="translate(160.6 137.73)"><tspan class="cls-3" x="0" y="0">e</tspan><tspan class="cls-5" x="80.92" y="0">v</tspan><tspan class="cls-2" x="163.5" y="0">e</tspan><tspan class="cls-4" x="250.83" y="0">r</tspan><tspan class="cls-2" x="307.95" y="0">dant</tspan></text>
    <path class="cls-7" d="m75.59,52.48c6.18,6.18,8.07,15.48,6.12,25.53-1.95,10.05-7.72,20.83-16.88,29.99l-23.66,23.66-22.38-22.38,56.8-56.8Z"/>
    <path class="cls-1" d="m128.71,105.61l-34.44,34.44c-.74.74-22.54,22.18-43.43,1.29l-1.31-1.31,36.4-36.4c11.27-11.27,30.42-10.38,42.78,1.99Z"/>
    <path class="cls-6" d="m44.85,21.75c6.18,6.18,9.5,14.06,9.86,21.8.36,7.75-2.23,15.35-7.87,20.98L10.43,100.93l-.02-.02c-.74-.74-22.18-22.54-1.29-43.43L44.85,21.75Z"/>
  </g>
</svg>