<?xml version="1.0" encoding="UTF-8"?>
<svg id="Layer_2" data-name="Layer 2" xmlns="http://www.w3.org/2000/svg" xmlns:xlink="http://www.w3.org/1999/xlink" viewBox="0 0 808.41 177.02">
  <defs>
    <style>
      .cls-1 {
        fill: url(#linear-gradient-2);
      }

      .cls-2 {
        fill: #fff;
      }

      .cls-3 {
        fill: url(#linear-gradient-3);
      }

      .cls-4 {
        fill: url(#linear-gradient);
      }
    </style>
    <linearGradient id="linear-gradient" x1="-81.92" y1="19.09" x2=".49" y2="66.76" gradientTransform="translate(80.54 74.92) rotate(-45)" gradientUnits="userSpaceOnUse">
      <stop offset="0" stop-color="#2cb270"/>
      <stop offset="1" stop-color="#006a15"/>
    </linearGradient>
    <linearGradient id="linear-gradient-2" x1="-2.22" y1="-102.02" x2="-83.75" y2="-102.02" gradientTransform="translate(177.41 81.25) rotate(-45)" gradientUnits="userSpaceOnUse">
      <stop offset="0" stop-color="#72dd24"/>
      <stop offset=".54" stop-color="#4bc54d"/>
      <stop offset=".95" stop-color="#2cb270"/>
    </linearGradient>
    <linearGradient id="linear-gradient-3" x1="-16.13" y1="-5.87" x2="-130.58" y2="-120.32" gradientTransform="translate(177.41 81.25) rotate(-45)" gradientUnits="userSpaceOnUse">
      <stop offset="0" stop-color="#72dd24"/>
      <stop offset="1" stop-color="#2cb270"/>
    </linearGradient>
  </defs>
  <g id="Layer_1-2" data-name="Layer 1">
    <g>
      <path class="cls-2" d="M248.62,135.11c-8.78,0-16.34-1.95-22.69-5.84-6.35-3.89-11.23-9.35-14.65-16.37-3.42-7.02-5.13-15.19-5.13-24.52s1.71-17.56,5.13-24.7c3.42-7.14,8.2-12.71,14.35-16.72,6.15-4.01,13.33-6.02,21.56-6.02,4.74,0,9.43,.79,14.06,2.37,4.63,1.58,8.84,4.14,12.63,7.68,3.8,3.54,6.82,8.21,9.07,14.03,2.25,5.81,3.38,12.97,3.38,21.47v4.86c0,.59-.48,1.07-1.07,1.07h-68.08c-.59,0-1.07-.48-1.07-1.07v-9.96c0-.59,.48-1.07,1.07-1.07h53.82c.6,0,1.09-.5,1.08-1.1-.14-4.7-1.15-8.92-3.04-12.66-2.04-4.03-4.92-7.21-8.66-9.55-3.74-2.33-8.14-3.5-13.2-3.5-5.57,0-10.39,1.38-14.44,4.12-4.05,2.75-7.17,6.32-9.34,10.71-2.17,4.39-3.26,9.09-3.26,14.12v8.07c0,6.88,1.2,12.7,3.59,17.47,2.39,4.76,5.72,8.38,9.99,10.85,4.27,2.47,9.23,3.71,14.89,3.71,3.68,0,7.01-.52,9.99-1.57,2.98-1.05,5.56-2.63,7.74-4.74,2.02-1.96,3.61-4.37,4.77-7.24,.17-.41,.56-.68,.99-.68l12.6,.08c.73,0,1.24,.72,1.01,1.41-.74,2.22-1.83,5.15-3.02,7.48-1.54,3.02-3.26,5.11-4.98,6.89-3.36,3.46-7.51,6.15-12.45,8.07-4.94,1.92-10.5,2.88-16.67,2.88Z"/>
      <path class="cls-2" d="M407.45,135.22c-8.78,0-16.34-1.95-22.69-5.84-6.35-3.89-11.23-9.35-14.65-16.37-3.42-7.02-5.13-15.19-5.13-24.52s1.71-17.56,5.13-24.7c3.42-7.14,8.2-12.71,14.35-16.72,6.15-4.01,13.33-6.02,21.56-6.02,4.74,0,9.43,.79,14.06,2.37,4.63,1.58,8.84,4.14,12.63,7.68,3.8,3.54,6.82,8.21,9.07,14.03,2.25,5.81,3.38,12.97,3.38,21.47v4.86c0,.59-.48,1.07-1.07,1.07h-68.08c-.59,0-1.07-.48-1.07-1.07v-9.96c0-.59,.48-1.07,1.07-1.07h53.82c.6,0,1.09-.5,1.08-1.1-.14-4.7-1.15-8.92-3.04-12.66-2.04-4.03-4.92-7.21-8.66-9.55-3.74-2.33-8.14-3.5-13.2-3.5-5.57,0-10.39,1.38-14.44,4.12-4.05,2.75-7.17,6.32-9.34,10.71-2.17,4.39-3.26,9.09-3.26,14.12v8.07c0,6.88,1.2,12.7,3.59,17.47,2.39,4.76,5.72,8.38,9.99,10.85,4.27,2.47,9.23,3.71,14.89,3.71,3.68,0,7.01-.52,9.99-1.57,2.98-1.05,5.56-2.63,7.74-4.74,2.02-1.96,3.61-4.37,4.77-7.24,.17-.41,.56-.68,.99-.68l12.6,.08c.73,0,1.24,.72,1.01,1.41-.74,2.22-1.83,5.15-3.02,7.48-1.54,3.02-3.26,5.11-4.98,6.89-3.36,3.46-7.51,6.15-12.45,8.07-4.94,1.92-10.5,2.88-16.67,2.88Z"/>
      <path class="cls-2" d="M366.28,43.55l-32.89,88.95c-.16,.42-.56,.7-1,.7h-12.74c-.45,0-.85-.28-1-.7l-32.89-88.95c-.26-.7,.26-1.44,1-1.44h12.88c.46,0,.86,.29,1.01,.72l24.9,71.87h.95l24.9-71.87c.15-.43,.56-.72,1.01-.72h12.88c.75,0,1.26,.74,1,1.44Z"/>
      <path class="cls-2" d="M456.11,132.14V43.18c0-.59,.48-1.07,1.07-1.07h11.38c.59,0,1.07,.48,1.07,1.07v12.69h.95c1.66-4.51,4.66-8.16,9.01-10.97,4.35-2.81,9.25-4.21,14.71-4.21,1.03,0,2.31,.02,3.85,.06,.98,.03,1.82,.06,2.49,.1,.57,.03,1.01,.5,1.01,1.07v11.94c0,.67-.59,1.17-1.25,1.06-.53-.09-1.19-.2-1.99-.32-1.68-.26-3.45-.39-5.31-.39-4.43,0-8.37,.92-11.83,2.76-3.46,1.84-6.19,4.37-8.18,7.59-2,3.22-3,6.89-3,11v56.58c0,.59-.48,1.07-1.07,1.07h-11.85c-.59,0-1.07-.48-1.07-1.07Z"/>
      <path class="cls-2" d="M543.08,135.11c-7.59,0-14.29-1.93-20.11-5.78-5.81-3.85-10.36-9.31-13.64-16.37-3.28-7.06-4.92-15.41-4.92-25.06s1.64-17.87,4.92-24.91c3.28-7.04,7.85-12.47,13.7-16.31,5.85-3.83,12.61-5.75,20.28-5.75,5.93,0,10.62,.98,14.09,2.94,3.46,1.96,6.11,4.17,7.95,6.64,1.66,2.23,2.99,4.1,3.99,5.6,.2,.3,.53,.47,.89,.47h.61V12.82c0-.59,.48-1.07,1.07-1.07h11.85c.59,0,1.07,.48,1.07,1.07v119.32c0,.59-.48,1.07-1.07,1.07h-11.38c-.59,0-1.07-.48-1.07-1.07v-11.85c0-.59-.48-1.07-1.07-1.07h0c-.37,0-.7,.18-.9,.49-1.01,1.58-2.36,3.5-4.08,5.77-1.9,2.51-4.61,4.74-8.13,6.7-3.52,1.96-8.2,2.94-14.06,2.94Zm1.9-12.57c5.61,0,10.36-1.47,14.23-4.42,3.87-2.95,6.82-7.04,8.84-12.28,2.02-5.24,3.02-11.3,3.02-18.18s-.99-12.76-2.97-17.88c-1.98-5.12-4.9-9.11-8.78-11.98-3.88-2.87-8.66-4.3-14.35-4.3s-10.86,1.51-14.8,4.54c-3.93,3.03-6.88,7.12-8.84,12.28-1.96,5.16-2.94,10.94-2.94,17.35s1,12.37,2.99,17.64c2,5.28,4.96,9.47,8.9,12.57,3.93,3.1,8.83,4.66,14.68,4.66Z"/>
      <path class="cls-2" d="M626.72,135.34c-5.77,0-11.01-1.1-15.72-3.29-4.71-2.19-8.44-5.38-11.21-9.55-2.77-4.17-4.15-9.22-4.15-15.15,0-5.22,1.03-9.46,3.08-12.72,2.06-3.26,4.8-5.82,8.24-7.68s7.24-3.25,11.42-4.18c4.17-.93,8.37-1.67,12.6-2.22,5.54-.71,10.03-1.25,13.49-1.63,3.46-.38,5.99-1.02,7.59-1.93,1.6-.91,2.4-2.49,2.4-4.75v-.47c0-5.85-1.59-10.4-4.77-13.64-3.18-3.24-8-4.86-14.44-4.86s-11.92,1.46-15.72,4.39c-3.47,2.68-6,5.52-7.59,8.52-.25,.48-.8,.71-1.31,.53l-11.3-4.04c-.59-.21-.88-.88-.62-1.45,2.32-5.03,5.33-8.99,9.05-11.9,3.97-3.1,8.32-5.28,13.05-6.52,4.72-1.25,9.38-1.87,13.97-1.87,2.93,0,6.3,.35,10.11,1.04,3.81,.69,7.51,2.11,11.09,4.24,3.58,2.13,6.55,5.36,8.93,9.67,2.37,4.31,3.56,10.08,3.56,17.32v58.95c0,.59-.48,1.07-1.07,1.07h-11.85c-.59,0-1.07-.48-1.07-1.07v-11.26h-.71c-.95,1.98-2.53,4.09-4.74,6.35-2.21,2.25-5.16,4.17-8.84,5.75-3.68,1.58-8.17,2.37-13.46,2.37Zm2.13-12.57c5.54,0,10.21-1.09,14.03-3.26,3.81-2.17,6.7-4.98,8.66-8.42,1.96-3.44,2.94-7.06,2.94-10.85v-10.77c0-.78-.81-1.31-1.51-.97-.63,.3-1.42,.59-2.37,.86-2,.57-4.29,1.07-6.88,1.48-2.59,.42-5.1,.77-7.53,1.07-2.43,.3-4.4,.54-5.9,.74-3.64,.47-7.03,1.24-10.17,2.28-3.14,1.05-5.67,2.61-7.59,4.69-1.92,2.08-2.88,4.89-2.88,8.45,0,4.86,1.81,8.53,5.43,11,3.62,2.47,8.21,3.71,13.79,3.71Z"/>
      <path class="cls-2" d="M695.65,78.41v53.73c0,.59-.48,1.07-1.07,1.07h-11.85c-.59,0-1.07-.48-1.07-1.07V43.18c0-.59,.48-1.07,1.07-1.07h11.38c.59,0,1.07,.48,1.07,1.07v13.16h.52c.41,0,.78-.24,.96-.6,2.13-4.35,5.28-7.87,9.44-10.57,4.35-2.83,9.96-4.24,16.84-4.24,6.17,0,11.56,1.25,16.19,3.77,4.63,2.51,8.22,6.31,10.79,11.39,2.57,5.08,3.85,11.5,3.85,19.25v56.81c0,.59-.48,1.07-1.07,1.07h-11.85c-.59,0-1.07-.48-1.07-1.07v-55.86c0-7.16-1.86-12.74-5.58-16.75-3.72-4.01-8.82-6.02-15.3-6.02-4.47,0-8.45,.97-11.95,2.91-3.5,1.94-6.26,4.77-8.27,8.48-2.02,3.72-3.02,8.22-3.02,13.52Z"/>
      <path class="cls-2" d="M806.94,43.18v9.72c0,.59-.48,1.07-1.07,1.07h-45.07c-.59,0-1.07-.48-1.07-1.07v-9.72c0-.59,.48-1.07,1.07-1.07h45.07c.59,0,1.07,.48,1.07,1.07Zm-32.38-22.9h11.85c.59,0,1.07,.48,1.07,1.07V107.11c0,3.95,.58,6.91,1.75,8.87,1.17,1.96,2.67,3.26,4.51,3.91s3.79,.98,5.84,.98c1.54,0,2.81-.09,3.8-.27,.5-.09,.96-.17,1.36-.25,.57-.11,1.12,.25,1.24,.82l2.4,10.62c.12,.54-.18,1.09-.72,1.26-.83,.26-1.84,.52-3.05,.78-1.7,.38-3.85,.56-6.46,.56-3.95,0-7.82-.85-11.59-2.55-3.78-1.7-6.9-4.29-9.37-7.77-2.47-3.48-3.71-7.87-3.71-13.17V21.36c0-.59,.48-1.07,1.07-1.07Z"/>
    </g>
    <path class="cls-4" d="M36.06,132.98l18.19-18.19c20.25,20.25,53.1,20.25,73.35,0l18.19,18.19c-30.3,30.3-79.44,30.3-109.74,0Z"/>
    <path class="cls-1" d="M37.38,23.95l19.18,19.18c-19.74,19.74-21.23,50.79-4.51,72.25l-19.27,19.27C5.5,102.52,7.05,54.29,37.38,23.95Z"/>
    <path class="cls-3" d="M153.06,23.96c3.27,3.27,6.2,6.73,8.8,10.38L19.18,177.02,0,157.84,123.1,34.74c-20.98-12.45-48.5-9.65-66.54,8.39l-19.18-19.18C66.06-4.72,110.74-7.65,142.68,15.16c3.65,2.6,7.12,5.53,10.38,8.8Z"/>
  </g>
</svg>