<?xml version="1.0" encoding="UTF-8"?>
<svg id="Layer_2" data-name="Layer 2" xmlns="http://www.w3.org/2000/svg" xmlns:xlink="http://www.w3.org/1999/xlink" viewBox="0 0 161.86 177.02">
  <defs>
    <style>
      .cls-1 {
        fill: url(#linear-gradient-2);
      }

      .cls-2 {
        fill: url(#linear-gradient-3);
      }

      .cls-3 {
        fill: url(#linear-gradient);
      }
    </style>
    <linearGradient id="linear-gradient" x1="78.67" y1="84.84" x2="161.08" y2="132.51" gradientTransform="translate(-79.5 141.99) rotate(-45)" gradientUnits="userSpaceOnUse">
      <stop offset="0" stop-color="#2cb270"/>
      <stop offset="1" stop-color="#006a15"/>
    </linearGradient>
    <linearGradient id="linear-gradient-2" x1="158.37" y1="-36.27" x2="76.84" y2="-36.27" gradientTransform="translate(17.37 148.32) rotate(-45)" gradientUnits="userSpaceOnUse">
      <stop offset="0" stop-color="#72dd24"/>
      <stop offset=".54" stop-color="#4bc54d"/>
      <stop offset=".95" stop-color="#2cb270"/>
    </linearGradient>
    <linearGradient id="linear-gradient-3" x1="144.46" y1="59.88" x2="30.01" y2="-54.57" gradientTransform="translate(17.37 148.32) rotate(-45)" gradientUnits="userSpaceOnUse">
      <stop offset="0" stop-color="#72dd24"/>
      <stop offset="1" stop-color="#2cb270"/>
    </linearGradient>
  </defs>
  <g id="Layer_1-2" data-name="Layer 1">
    <path class="cls-3" d="M36.06,132.98l18.19-18.19c20.25,20.25,53.1,20.25,73.35,0l18.19,18.19c-30.3,30.3-79.44,30.3-109.74,0Z"/>
    <path class="cls-1" d="M37.38,23.95l19.18,19.18c-19.74,19.74-21.23,50.79-4.51,72.25l-19.27,19.27C5.5,102.52,7.05,54.29,37.38,23.95Z"/>
    <path class="cls-2" d="M153.06,23.96c3.27,3.27,6.2,6.73,8.8,10.38L19.18,177.02,0,157.84,123.1,34.74c-20.98-12.45-48.5-9.65-66.54,8.39l-19.18-19.18C66.06-4.72,110.74-7.65,142.68,15.16c3.65,2.6,7.12,5.53,10.38,8.8Z"/>
    <path class="cls-3" d="M36.06,132.98l18.19-18.19c20.25,20.25,53.1,20.25,73.35,0l18.19,18.19c-30.3,30.3-79.44,30.3-109.74,0Z"/>
    <path class="cls-1" d="M37.38,23.95l19.18,19.18c-19.74,19.74-21.23,50.79-4.51,72.25l-19.27,19.27C5.5,102.52,7.05,54.29,37.38,23.95Z"/>
    <path class="cls-2" d="M153.06,23.96c3.27,3.27,6.2,6.73,8.8,10.38L19.18,177.02,0,157.84,123.1,34.74c-20.98-12.45-48.5-9.65-66.54,8.39l-19.18-19.18C66.06-4.72,110.74-7.65,142.68,15.16c3.65,2.6,7.12,5.53,10.38,8.8Z"/>
  </g>
</svg>