<?xml version="1.0" encoding="UTF-8"?>
<svg id="b" data-name="Layer 2" xmlns="http://www.w3.org/2000/svg" width="176" height="192.164" viewBox="0 0 176 192.164">
  <g id="c" data-name="Layer 1">
    <g>
      <path d="M164.873,157.079l-100.324-41.035c-2.751-1.125-4.549-3.803-4.549-6.775V9.723c0-2.644,2.68-4.443,5.127-3.442l100.324,41.035c2.751,1.125,4.549,3.803,4.549,6.775v99.546c0,2.644-2.68,4.443-5.127,3.442Z" fill="none" stroke="#252b2b" stroke-miterlimit="10" stroke-width="12"/>
      <path d="M137.873,171.481l-100.324-41.035c-2.751-1.125-4.549-3.803-4.549-6.775V24.125c0-2.644,2.68-4.443,5.127-3.442l100.324,41.035c2.751,1.125,4.549,3.803,4.549,6.775v99.546c0,2.644-2.68,4.443-5.127,3.442Z" fill="none" stroke="#252b2b" stroke-miterlimit="10" stroke-width="12"/>
      <path d="M110.873,185.883L10.549,144.849c-2.751-1.125-4.549-3.803-4.549-6.775V38.528c0-2.644,2.68-4.443,5.127-3.442l100.324,41.035c2.751,1.125,4.549,3.803,4.549,6.775v99.546c0,2.644-2.68,4.443-5.127,3.442Z" fill="none" stroke="#252b2b" stroke-miterlimit="10" stroke-width="12"/>
    </g>
  </g>
</svg>