<?xml version="1.0" encoding="UTF-8"?>
<svg id="b" data-name="Layer 2" xmlns="http://www.w3.org/2000/svg" width="164" height="180.164" viewBox="0 0 164 180.164">
  <g id="c" data-name="Layer 1">
    <path d="M158.873,151.079l-100.324-41.035c-2.751-1.125-4.549-3.803-4.549-6.775V3.723c0-2.644,2.68-4.443,5.127-3.442l100.324,41.035c2.751,1.125,4.549,3.803,4.549,6.775v99.546c0,2.644-2.68,4.443-5.127,3.442Z" fill="#288db1" stroke-width="0"/>
    <path d="M131.873,165.481L31.549,124.446c-2.751-1.125-4.549-3.803-4.549-6.775V18.125c0-2.644,2.68-4.443,5.127-3.442l100.324,41.035c2.751,1.125,4.549,3.803,4.549,6.775v99.546c0,2.644-2.68,4.443-5.127,3.442Z" fill="#28a0ad" stroke-width="0"/>
    <path d="M104.873,179.883L4.549,138.849c-2.751-1.125-4.549-3.803-4.549-6.775V32.528c0-2.644,2.68-4.443,5.127-3.442l100.324,41.035c2.751,1.125,4.549,3.803,4.549,6.775v99.546c0,2.644-2.68,4.443-5.127,3.442Z" fill="#2fc6c1" stroke-width="0"/>
  </g>
</svg>