<?xml version="1.0" encoding="UTF-8"?>
<svg id="b" data-name="Layer 2" xmlns="http://www.w3.org/2000/svg" width="504.428" height="82.666" viewBox="0 0 504.428 82.666">
  <g id="c" data-name="Layer 1">
    <g>
      <path d="m114.075,28.268v4.425c2.212-3.891,5.188-5.646,9.689-5.646,4.578,0,7.935,2.06,9.613,5.875,2.365-4.044,5.646-5.875,10.681-5.875,3.586,0,6.561,1.145,8.545,3.281,2.136,2.365,2.823,4.807,2.823,10.147v23.117h-9.689v-21.286c0-4.807-1.754-7.095-5.417-7.095-3.586,0-5.646,2.594-5.646,7.095v21.286h-9.689v-20.981c0-4.883-1.831-7.4-5.34-7.4-3.662,0-5.569,2.518-5.569,7.4v20.981h-9.689V28.268h9.689Z" fill="#fff" stroke-width="0"/>
      <path d="m171.266,48.257c.839,4.883,4.425,7.935,9.231,7.935,3.586,0,6.638-1.755,8.164-4.578l8.926,2.441c-3.509,6.866-9.689,10.757-17.166,10.757-11.215,0-19.226-7.935-19.226-18.921,0-11.062,7.706-18.845,18.616-18.845,11.292,0,19.15,7.935,19.15,19.303l-.076,1.907h-27.619Zm17.7-5.569c-.839-4.654-4.196-7.477-9.002-7.477-4.654,0-7.782,2.67-8.698,7.477h17.7Z" fill="#fff" stroke-width="0"/>
      <path d="m214.266,28.268v4.425c2.213-3.891,5.188-5.646,9.689-5.646,4.578,0,7.935,2.06,9.613,5.875,2.365-4.044,5.646-5.875,10.681-5.875,3.585,0,6.561,1.145,8.545,3.281,2.136,2.365,2.823,4.807,2.823,10.147v23.117h-9.689v-21.286c0-4.807-1.755-7.095-5.417-7.095-3.585,0-5.646,2.594-5.646,7.095v21.286h-9.689v-20.981c0-4.883-1.831-7.4-5.34-7.4-3.662,0-5.57,2.518-5.57,7.4v20.981h-9.689V28.268h9.689Z" fill="#fff" stroke-width="0"/>
      <path d="m273.28,63.592h-9.689V12.704h9.689v19.836c3.356-3.891,6.637-5.493,11.444-5.493,10.376,0,17.776,7.935,17.776,19.074,0,11.062-7.019,18.692-17.319,18.692-5.34,0-8.773-1.679-11.901-5.798v4.578Zm-.153-17.395c0,6.333,3.891,10.757,9.46,10.757,5.646,0,9.613-4.425,9.613-10.757,0-6.256-4.044-10.986-9.384-10.986-5.417,0-9.689,4.883-9.689,10.986Z" fill="#fff" stroke-width="0"/>
      <path d="m316.554,48.257c.839,4.883,4.425,7.935,9.232,7.935,3.585,0,6.637-1.755,8.163-4.578l8.927,2.441c-3.51,6.866-9.689,10.757-17.167,10.757-11.215,0-19.226-7.935-19.226-18.921,0-11.062,7.706-18.845,18.616-18.845,11.292,0,19.15,7.935,19.15,19.303l-.076,1.907h-27.619Zm17.7-5.569c-.839-4.654-4.196-7.477-9.002-7.477-4.654,0-7.782,2.67-8.698,7.477h17.7Z" fill="#fff" stroke-width="0"/>
      <path d="m359.555,28.268v5.188c.992-2.594,1.678-3.662,3.128-4.73,1.526-1.068,3.586-1.679,5.722-1.679.229,0,.61,0,1.145.076v9.918c-.763-.076-1.526-.153-2.06-.153-2.67,0-5.112,1.221-6.485,3.205-1.145,1.602-1.449,3.128-1.449,6.485v17.014h-9.689V28.268h9.689Z" fill="#fff" stroke-width="0"/>
      <path d="m387.44,28.421v4.883c2.67-4.043,5.646-5.722,9.995-5.722,4.807,0,7.858,2.06,9.46,6.409,2.594-4.501,5.875-6.409,11.139-6.409,4.043,0,7.095,1.297,8.926,3.738,1.679,2.213,2.137,4.196,2.137,9.766v22.507h-5.799v-21.133c0-4.272-.152-5.264-.992-6.714-1.068-1.831-3.357-2.976-6.104-2.976-5.112,0-7.935,3.433-7.935,9.689v21.133h-5.798v-21.057c0-3.433-.305-5.188-1.145-6.714-.992-1.984-3.128-3.052-5.722-3.052-5.112,0-8.164,3.662-8.164,9.766v21.057h-5.798V28.421h5.798Z" fill="#fff" stroke-width="0"/>
      <path d="m445.058,18.579c0,2.06-1.679,3.662-3.738,3.662s-3.662-1.602-3.662-3.738,1.602-3.738,3.738-3.738c2.06,0,3.662,1.679,3.662,3.814Zm-.839,45.014h-5.798V28.421h5.798v35.171Z" fill="#fff" stroke-width="0"/>
      <path d="m459.446,28.421v4.959c3.052-4.12,6.104-5.798,10.452-5.798,3.205,0,6.104,1.068,8.164,2.899,2.212,2.136,2.976,4.577,2.976,9.384v23.728h-5.798v-22.431c0-3.128-.382-4.806-1.297-6.027-1.068-1.45-3.128-2.365-5.493-2.365-2.594,0-4.959.992-6.714,2.976-1.679,1.831-2.289,3.509-2.289,6.409v21.438h-5.798V28.421h5.798Z" fill="#fff" stroke-width="0"/>
      <path d="m496.647,56.42c.077,1.755.534,2.137,2.67,2.137h2.67v5.035h-5.417c-4.12-.076-5.722-1.602-5.722-5.493v-24.566h-4.883v-5.112h4.883v-11.063h5.798v11.063h5.341v5.112h-5.341v22.888Z" fill="#fff" stroke-width="0"/>
    </g>
    <g>
      <polygon points="17.388 28.872 0 11.484 0 28.872 17.439 46.312 17.388 28.872" fill="#16c172" stroke-width="0"/>
      <polygon points="34.828 28.872 17.439 11.484 17.439 28.872 34.879 46.312 34.828 28.872" fill="#16c172" stroke-width="0"/>
      <polygon points="52.267 28.872 34.879 11.484 34.879 28.872 52.318 46.312 52.267 28.872" fill="#16c172" stroke-width="0"/>
      <g>
        <polygon points="34.828 63.751 17.439 81.14 17.439 63.751 34.879 46.312 34.828 63.751" fill="#23818e" stroke-width="0"/>
        <polygon points="52.267 63.751 34.879 81.14 34.879 63.751 52.318 46.312 52.267 63.751" fill="#23818e" stroke-width="0"/>
        <polygon points="69.707 63.751 52.318 81.14 52.318 63.751 69.758 46.312 69.707 63.751" fill="#23818e" stroke-width="0"/>
      </g>
    </g>
  </g>
</svg>