<?xml version="1.0" encoding="UTF-8"?>
<svg id="b" data-name="Layer 2" xmlns="http://www.w3.org/2000/svg" width="1338.887" height="227.44" viewBox="0 0 1338.887 227.44">
  <g id="c" data-name="Layer 1">
    <g>
      <path d="M158.873,186.828l-100.324-41.035c-2.751-1.125-4.549-3.803-4.549-6.775V39.472c0-2.644,2.68-4.443,5.127-3.442l100.324,41.035c2.751,1.125,4.549,3.803,4.549,6.775v99.546c0,2.644-2.68,4.443-5.127,3.442Z" fill="#2884a6" stroke-width="0"/>
      <path d="M131.873,201.23l-100.324-41.035c-2.751-1.125-4.549-3.803-4.549-6.775V53.874c0-2.644,2.68-4.443,5.127-3.442l100.324,41.035c2.751,1.125,4.549,3.803,4.549,6.775v99.546c0,2.644-2.68,4.443-5.127,3.442Z" fill="#28a0ad" stroke-width="0"/>
      <path d="M104.873,215.632L4.549,174.598c-2.751-1.125-4.549-3.803-4.549-6.775v-99.546c0-2.644,2.68-4.443,5.127-3.442l100.324,41.035c2.751,1.125,4.549,3.803,4.549,6.775v99.546c0,2.644-2.68,4.443-5.127,3.442Z" fill="#2fc6c1" stroke-width="0"/>
    </g>
    <g>
      <path d="M280.232,77.771v12.175c6.087-10.706,14.274-15.534,26.659-15.534,12.595,0,21.832,5.668,26.449,16.164,6.508-11.126,15.534-16.164,29.388-16.164,9.866,0,18.053,3.149,23.511,9.026,5.877,6.508,7.767,13.225,7.767,27.919v63.604h-26.659v-58.566c0-13.225-4.828-19.522-14.904-19.522-9.866,0-15.534,7.138-15.534,19.522v58.566h-26.659v-57.727c0-13.435-5.038-20.362-14.694-20.362-10.076,0-15.324,6.928-15.324,20.362v57.727h-26.659v-97.19h26.659Z" fill="#252b2b" stroke-width="0"/>
      <path d="M436.951,132.769c2.309,13.435,12.175,21.832,25.399,21.832,9.866,0,18.263-4.828,22.461-12.596l24.56,6.718c-9.656,18.893-26.659,29.598-47.231,29.598-30.857,0-52.898-21.831-52.898-52.059,0-30.438,21.201-51.85,51.219-51.85,31.067,0,52.689,21.832,52.689,53.109l-.21,5.247h-75.989ZM485.651,117.445c-2.309-12.805-11.545-20.572-24.77-20.572-12.805,0-21.412,7.348-23.93,20.572h48.7Z" fill="#252b2b" stroke-width="0"/>
      <path d="M555.257,77.771v12.175c6.087-10.706,14.274-15.534,26.659-15.534,12.595,0,21.832,5.668,26.449,16.164,6.508-11.126,15.534-16.164,29.388-16.164,9.866,0,18.053,3.149,23.511,9.026,5.878,6.508,7.767,13.225,7.767,27.919v63.604h-26.659v-58.566c0-13.225-4.828-19.522-14.904-19.522-9.866,0-15.534,7.138-15.534,19.522v58.566h-26.659v-57.727c0-13.435-5.038-20.362-14.694-20.362-10.076,0-15.324,6.928-15.324,20.362v57.727h-26.659v-97.19h26.659Z" fill="#252b2b" stroke-width="0"/>
      <path d="M713.425,174.962h-26.659V34.948h26.659v54.578c9.236-10.706,18.263-15.114,31.487-15.114,28.549,0,48.91,21.832,48.91,52.479,0,30.438-19.312,51.429-47.65,51.429-14.694,0-24.141-4.618-32.747-15.953v12.595ZM713.005,127.102c0,17.423,10.706,29.598,26.03,29.598,15.533,0,26.449-12.175,26.449-29.598,0-17.213-11.126-30.229-25.82-30.229-14.904,0-26.659,13.435-26.659,30.229Z" fill="#252b2b" stroke-width="0"/>
      <path d="M834.584,132.769c2.309,13.435,12.175,21.832,25.399,21.832,9.866,0,18.263-4.828,22.461-12.596l24.56,6.718c-9.656,18.893-26.658,29.598-47.23,29.598-30.857,0-52.898-21.831-52.898-52.059,0-30.438,21.201-51.85,51.219-51.85,31.068,0,52.689,21.832,52.689,53.109l-.21,5.247h-75.989ZM883.284,117.445c-2.31-12.805-11.546-20.572-24.771-20.572-12.805,0-21.411,7.348-23.93,20.572h48.7Z" fill="#252b2b" stroke-width="0"/>
      <path d="M952.891,77.771v14.274c2.729-7.138,4.618-10.076,8.606-13.016,4.198-2.938,9.866-4.618,15.743-4.618.631,0,1.68,0,3.149.21v27.289c-2.099-.21-4.198-.42-5.668-.42-7.347,0-14.063,3.359-17.843,8.816-3.148,4.408-3.988,8.607-3.988,17.843v46.812h-26.659v-97.19h26.659Z" fill="#252b2b" stroke-width="0"/>
      <path d="M1029.612,78.191v13.435c7.347-11.126,15.534-15.744,27.499-15.744,13.225,0,21.621,5.668,26.029,17.633,7.137-12.385,16.164-17.633,30.647-17.633,11.126,0,19.522,3.568,24.56,10.286,4.619,6.087,5.879,11.545,5.879,26.869v61.925h-15.954v-58.146c0-11.755-.42-14.484-2.729-18.473-2.938-5.038-9.236-8.187-16.793-8.187-14.064,0-21.831,9.446-21.831,26.659v58.146h-15.954v-57.937c0-9.446-.839-14.274-3.148-18.473-2.729-5.458-8.605-8.396-15.743-8.396-14.064,0-22.461,10.076-22.461,26.869v57.937h-15.954v-96.771h15.954Z" fill="#252b2b" stroke-width="0"/>
      <path d="M1182.889,51.112c0,5.667-4.619,10.075-10.287,10.075s-10.075-4.408-10.075-10.285,4.408-10.286,10.286-10.286c5.668,0,10.076,4.618,10.076,10.496ZM1180.579,174.962h-15.954v-96.771h15.954v96.771Z" fill="#252b2b" stroke-width="0"/>
      <path d="M1216.178,78.191v13.645c8.396-11.336,16.793-15.954,28.758-15.954,8.816,0,16.793,2.938,22.461,7.977,6.088,5.878,8.188,12.596,8.188,25.82v65.283h-15.954v-61.715c0-8.606-1.05-13.225-3.568-16.584-2.938-3.988-8.606-6.507-15.114-6.507-7.137,0-13.645,2.729-18.473,8.187-4.617,5.038-6.297,9.656-6.297,17.633v58.986h-15.953v-96.771h15.953Z" fill="#252b2b" stroke-width="0"/>
      <path d="M1317.479,155.229c.211,4.828,1.471,5.878,7.348,5.878h7.348v13.854h-14.904c-11.336-.21-15.744-4.408-15.744-15.114v-67.593h-13.435v-14.063h13.435v-30.438h15.953v30.438h14.695v14.063h-14.695v62.975Z" fill="#252b2b" stroke-width="0"/>
    </g>
  </g>
</svg>