<?xml version="1.0" encoding="UTF-8"?>
<svg id="Layer_2" data-name="Layer 2" xmlns="http://www.w3.org/2000/svg" viewBox="0 0 810.04 239.05">
  <defs>
    <style>
      .cls-1 {
        fill: #edefee;
      }
    </style>
  </defs>
  <g id="Layer_1-2" data-name="Layer 1">
    <g>
      <path class="cls-1" d="M320.51,87.67v-14.97c0-15.28,6.55-26.19,26.81-26.19h5.92V8.47h-9.67c-41.47,0-63.92,24.94-63.92,68.6v10.6h-27.44v31.8h27.44v72.96c0,22.56,18.29,40.85,40.85,40.85h0V119.47h59.24v113.81h40.85V87.67h-100.09Z"/>
      <path class="cls-1" d="M416.86,187.45h38.35c0,8.42,7.17,17.46,21.52,17.46,11.85,0,20.89-5.92,20.89-14.34,0-6.24-4.99-9.35-15.9-12.16l-19.33-4.68c-37.42-9.98-42.41-30.87-42.41-46.15,0-22.45,23.39-43.65,57.06-43.65,26.5,0,57.68,12.78,57.37,47.39h-38.98c0-9.98-8.11-15.28-17.77-15.28s-16.84,5.3-16.84,12.78c0,6.86,6.24,10.29,14.34,12.47l24.01,6.24c34.92,9.35,39.29,31.18,39.29,43.03,0,30.56-31.18,46.46-61.11,46.46s-60.18-17.46-60.49-49.58Z"/>
      <path class="cls-1" d="M526.61,160.01c0-46.15,37.42-76.08,79.82-76.08,26.5,0,47.71,12.16,61.43,31.18l-30.87,21.52c-6.55-9.04-18.71-14.65-30.25-14.65-23.07,0-38.66,16.84-38.66,38.04s15.59,38.98,38.66,38.98c11.54,0,23.7-5.61,30.25-14.65l30.87,21.51c-13.72,19.02-34.92,31.18-61.43,31.18-42.41,0-79.82-30.87-79.82-77.02Z"/>
      <path class="cls-1" d="M769.2,87.67h40.85v104.77c0,22.56-18.29,40.85-40.85,40.85h0v-20.89c-9.67,14.97-28.37,24.63-48.02,24.63-40.22,0-70.16-31.18-70.16-76.39s29.31-76.7,71.09-76.7c18.71,0,37.42,8.11,47.08,23.07v-19.33Zm-1.25,72.96c0-22.14-17.77-38.66-38.04-38.66s-37.11,17.46-37.11,38.66,15.9,38.35,37.42,38.35,37.73-17.46,37.73-38.35Z"/>
    </g>
    <rect class="cls-1" x="379.76" y="8.47" width="40.85" height="40.85"/>
    <path class="cls-1" d="M37.76,0h30.53V68.29H0v-30.53C0,16.92,16.92,0,37.76,0Z"/>
    <rect class="cls-1" x="85.37" y=".01" width="68.29" height="68.29"/>
    <path class="cls-1" d="M170.74,.01h56.3c6.62,0,11.99,5.37,11.99,11.99v23.92c0,17.87-14.51,32.38-32.38,32.38h-35.91V.01h0Z"/>
    <rect class="cls-1" x="0" y="85.38" width="68.29" height="68.29"/>
    <path class="cls-1" d="M85.37,85.39h68.29v56.3c0,6.62-5.37,11.99-11.99,11.99h-56.3V85.39h0Z"/>
    <path class="cls-1" d="M0,170.76H68.29v56.3c0,6.62-5.37,11.99-11.99,11.99h-18.54C16.92,239.05,0,222.13,0,201.29v-30.53H0Z"/>
  </g>
</svg>