<?xml version="1.0" encoding="UTF-8"?>
<svg id="b" data-name="Layer 2" xmlns="http://www.w3.org/2000/svg" width="1202.317" height="197.036" viewBox="0 0 1202.317 197.036">
  <g id="c" data-name="Layer 1">
    <g>
      <path d="m271.903,67.375v10.547c5.273-9.274,12.365-13.457,23.095-13.457,10.911,0,18.913,4.91,22.914,14.003,5.638-9.639,13.457-14.003,25.46-14.003,8.547,0,15.639,2.729,20.367,7.82,5.092,5.637,6.729,11.456,6.729,24.187v55.102h-23.096v-50.737c0-11.457-4.183-16.912-12.911-16.912-8.547,0-13.457,6.183-13.457,16.912v50.737h-23.096v-50.01c0-11.639-4.364-17.64-12.729-17.64-8.729,0-13.275,6.001-13.275,17.64v50.01h-23.096v-84.198h23.096Z" fill="#141414" stroke-width="0"/>
      <path d="m408.217,115.021c2,11.639,10.548,18.913,22.005,18.913,8.547,0,15.821-4.183,19.458-10.911l21.277,5.819c-8.365,16.366-23.096,25.641-40.918,25.641-26.732,0-45.827-18.912-45.827-45.1,0-26.368,18.367-44.918,44.373-44.918,26.914,0,45.646,18.913,45.646,46.01l-.183,4.546h-65.831Zm42.19-13.275c-2.001-11.093-10.002-17.821-21.459-17.821-11.093,0-18.549,6.364-20.731,17.821h42.19Z" fill="#141414" stroke-width="0"/>
      <path d="m510.711,67.375v10.547c5.273-9.274,12.365-13.457,23.095-13.457,10.911,0,18.913,4.91,22.914,14.003,5.638-9.639,13.457-14.003,25.46-14.003,8.547,0,15.639,2.729,20.367,7.82,5.092,5.637,6.729,11.456,6.729,24.187v55.102h-23.096v-50.737c0-11.457-4.183-16.912-12.911-16.912-8.547,0-13.457,6.183-13.457,16.912v50.737h-23.096v-50.01c0-11.639-4.364-17.64-12.729-17.64-8.729,0-13.275,6.001-13.275,17.64v50.01h-23.096v-84.198h23.096Z" fill="#141414" stroke-width="0"/>
      <path d="m651.372,151.573h-23.096V30.276h23.096v47.282c8.001-9.274,15.821-13.094,27.277-13.094,24.732,0,42.372,18.913,42.372,45.464,0,26.369-16.73,44.554-41.28,44.554-12.73,0-20.913-4-28.369-13.82v10.911Zm-.364-41.463c0,15.094,9.274,25.642,22.55,25.642,13.457,0,22.914-10.548,22.914-25.642,0-14.912-9.639-26.187-22.368-26.187-12.912,0-23.096,11.639-23.096,26.187Z" fill="#141414" stroke-width="0"/>
      <path d="m754.515,115.021c2.001,11.639,10.548,18.913,22.005,18.913,8.547,0,15.821-4.183,19.458-10.911l21.277,5.819c-8.366,16.366-23.096,25.641-40.918,25.641-26.732,0-45.827-18.912-45.827-45.1,0-26.368,18.367-44.918,44.373-44.918,26.914,0,45.645,18.913,45.645,46.01l-.182,4.546h-65.831Zm42.19-13.275c-2.001-11.093-10.002-17.821-21.459-17.821-11.093,0-18.549,6.364-20.731,17.821h42.19Z" fill="#141414" stroke-width="0"/>
      <path d="m857.008,67.375v12.366c2.363-6.184,4-8.729,7.456-11.275,3.637-2.546,8.547-4.001,13.639-4.001.546,0,1.455,0,2.728.182v23.642c-1.818-.182-3.637-.364-4.91-.364-6.364,0-12.184,2.91-15.457,7.639-2.729,3.818-3.455,7.456-3.455,15.457v40.554h-23.096v-84.198h23.096Z" fill="#141414" stroke-width="0"/>
      <path d="m923.473,67.738v11.639c6.365-9.638,13.457-13.639,23.823-13.639,11.457,0,18.73,4.91,22.55,15.275,6.183-10.729,14.003-15.275,26.551-15.275,9.639,0,16.912,3.091,21.277,8.91,4,5.274,5.092,10.002,5.092,23.277v53.647h-13.821v-50.374c0-10.184-.363-12.548-2.364-16.003-2.546-4.364-8.001-7.092-14.548-7.092-12.185,0-18.913,8.183-18.913,23.095v50.374h-13.821v-50.191c0-8.184-.728-12.366-2.728-16.004-2.364-4.728-7.456-7.273-13.639-7.273-12.185,0-19.459,8.729-19.459,23.277v50.191h-13.82v-83.835h13.82Z" fill="#141414" stroke-width="0"/>
      <path d="m1060.807,44.279c0,4.91-4.001,8.729-8.911,8.729s-8.729-3.818-8.729-8.91,3.819-8.911,8.911-8.911c4.91,0,8.729,4.001,8.729,9.093Zm-2.001,107.294h-13.82v-83.835h13.82v83.835Z" fill="#141414" stroke-width="0"/>
      <path d="m1095.101,67.738v11.82c7.274-9.819,14.549-13.82,24.914-13.82,7.638,0,14.549,2.546,19.459,6.91,5.273,5.092,7.092,10.911,7.092,22.368v56.557h-13.82v-53.465c0-7.456-.91-11.457-3.092-14.367-2.546-3.455-7.456-5.637-13.094-5.637-6.183,0-11.82,2.363-16.003,7.092-4.001,4.364-5.456,8.365-5.456,15.276v51.101h-13.82v-83.835h13.82Z" fill="#141414" stroke-width="0"/>
      <path d="m1183.77,134.479c.183,4.183,1.273,5.093,6.365,5.093h6.365v12.002h-12.912c-9.82-.182-13.639-3.819-13.639-13.094v-58.557h-11.639v-12.185h11.639v-26.369h13.82v26.369h12.73v12.185h-12.73v54.556Z" fill="#141414" stroke-width="0"/>
    </g>
    <g>
      <polygon points="41.445 68.817 0 27.371 0 68.817 41.567 110.384 41.445 68.817" fill="#16c172" stroke-width="0"/>
      <polygon points="83.013 68.817 41.567 27.371 41.567 68.817 83.135 110.384 83.013 68.817" fill="#16c172" stroke-width="0"/>
      <polygon points="124.58 68.817 83.135 27.371 83.135 68.817 124.702 110.384 124.58 68.817" fill="#16c172" stroke-width="0"/>
      <g>
        <polygon points="83.013 151.951 41.567 193.397 41.567 151.951 83.135 110.384 83.013 151.951" fill="#23818e" stroke-width="0"/>
        <polygon points="124.58 151.951 83.135 193.397 83.135 151.951 124.702 110.384 124.58 151.951" fill="#23818e" stroke-width="0"/>
        <polygon points="166.148 151.951 124.702 193.397 124.702 151.951 166.269 110.384 166.148 151.951" fill="#23818e" stroke-width="0"/>
      </g>
    </g>
  </g>
</svg>