<?xml version="1.0" encoding="UTF-8"?>
<svg id="Layer_2" data-name="Layer 2" xmlns="http://www.w3.org/2000/svg" viewBox="0 0 629.56405 128.0123">
  <defs>
    <style>
      .cls-1 {
        fill: none;
        stroke: #fff;
        stroke-miterlimit: 10;
        stroke-width: 7.45147px;
      }

      .cls-2 {
        fill: #fff;
      }
    </style>
  </defs>
  <g id="Layer_1-2" data-name="Layer 1">
    <g>
      <path class="cls-2" d="M198.70901,106.22507c-6.75564,0-12.57551-1.498-17.45997-4.49625-4.88409-2.99675-8.64299-7.1961-11.27482-12.59806-2.63258-5.40196-3.94831-11.6931-3.94831-18.87567,0-7.18107,1.31573-13.5188,3.94831-19.01171,2.63183-5.49291,6.31444-9.78396,11.0467-12.8724,4.73151-3.08844,10.26275-4.63304,16.59259-4.63304,3.65179,0,7.25811,.60882,10.81858,1.82571,3.56047,1.21764,6.80149,3.18766,9.7227,5.91081,2.92158,2.7239,5.24938,6.32271,6.98414,10.79565,1.73438,4.4737,2.60176,9.98164,2.60176,16.52457v3.74018c0,.45534-.36912,.82446-.82446,.82446h-52.39736c-.45534,0-.82446-.36912-.82446-.82446v-7.66301c0-.45534,.36912-.82446,.82446-.82446h41.42531c.4618,0,.84238-.38195,.82907-.84356-.10422-3.61587-.88377-6.86503-2.33866-9.7469-1.56752-3.10348-3.78859-5.55304-6.66432-7.34868-2.87611-1.79564-6.26182-2.69384-10.15677-2.69384-4.29068,0-7.99583,1.05829-11.11509,3.17263-3.11964,2.11584-5.51621,4.86154-7.18933,8.23936-1.67388,3.37782-2.51044,6.99992-2.51044,10.86405v6.20846c0,5.29448,.91999,9.77644,2.76149,13.44289,1.84074,3.6672,4.40492,6.45199,7.69142,8.35361,3.28688,1.90237,7.10553,2.85243,11.45746,2.85243,2.83026,0,5.39369-.40287,7.6918-1.20937,2.29736-.80575,4.28278-2.02339,5.95704-3.65142,1.55151-1.50969,2.77695-3.36582,3.67481-5.56958,.12766-.31333,.42736-.52321,.76569-.52104l9.701,.06208c.56126,.00359,.95518,.55122,.77786,1.08374-.56815,1.70622-1.40621,3.96543-2.32149,5.75995-1.18531,2.32394-2.50732,3.93573-3.83388,5.30161-2.58673,2.66302-5.78228,4.73226-9.5859,6.20771-3.80437,1.47545-8.07964,2.21355-12.82693,2.21355Z"/>
      <path class="cls-2" d="M320.95327,106.31618c-6.75564,0-12.57551-1.498-17.45997-4.49625-4.88409-2.99675-8.64299-7.1961-11.27482-12.59806-2.63258-5.40196-3.94831-11.6931-3.94831-18.87567,0-7.18107,1.31573-13.5188,3.94831-19.01171,2.63183-5.49291,6.31444-9.78396,11.0467-12.8724,4.73151-3.08844,10.26275-4.63304,16.59259-4.63304,3.65179,0,7.25811,.60882,10.81858,1.82571,3.56047,1.21764,6.80149,3.18766,9.7227,5.91081,2.92158,2.7239,5.24938,6.32271,6.98414,10.79565,1.73438,4.4737,2.60176,9.98164,2.60176,16.52457v3.74018c0,.45534-.36912,.82446-.82446,.82446h-52.39736c-.45534,0-.82446-.36912-.82446-.82446v-7.66301c0-.45534,.36912-.82446,.82446-.82446h41.42531c.4618,0,.84238-.38195,.82907-.84356-.10422-3.61587-.88377-6.86503-2.33866-9.7469-1.56752-3.10348-3.78859-5.55304-6.66432-7.34868-2.87611-1.79564-6.26182-2.69384-10.15677-2.69384-4.29068,0-7.99583,1.05829-11.11509,3.17263-3.11964,2.11584-5.51621,4.86154-7.18933,8.23936-1.67388,3.37782-2.51044,6.99992-2.51044,10.86405v6.20846c0,5.29448,.91999,9.77644,2.76149,13.44289,1.84074,3.6672,4.40492,6.45199,7.69142,8.35361,3.28688,1.90237,7.10553,2.85243,11.45746,2.85243,2.83026,0,5.39369-.40287,7.6918-1.20937,2.29736-.80575,4.28278-2.02339,5.95704-3.65142,1.55151-1.50969,2.77695-3.36582,3.67481-5.56958,.12766-.31333,.42736-.52321,.76569-.52104l9.701,.06208c.56126,.00359,.95518,.55122,.77786,1.08374-.56815,1.70622-1.40621,3.96543-2.32149,5.75995-1.18531,2.32394-2.50732,3.93573-3.83388,5.30161-2.58673,2.66302-5.78228,4.73226-9.5859,6.20771-3.80437,1.47545-8.07964,2.21355-12.82693,2.21355Z"/>
      <path class="cls-2" d="M289.26396,35.76083l-25.3177,68.46531c-.11968,.32363-.42823,.53851-.77328,.53851h-9.80708c-.34505,0-.65361-.21487-.77328-.53851l-25.31807-68.46531c-.1991-.53841,.19924-1.11042,.77328-1.11042h9.91512c.35132,0,.66405,.22263,.77904,.5546l19.16234,55.31777h.73021l19.16234-55.31777c.115-.33197,.42772-.5546,.77904-.5546h9.91475c.57404,0,.97238,.572,.77328,1.11041Z"/>
      <path class="cls-2" d="M358.40334,103.94019V35.47487c0-.45534,.36912-.82446,.82446-.82446h8.75851c.45534,0,.82446,.36912,.82446,.82446v9.766h.73058c1.27777-3.46952,3.59016-6.28362,6.93829-8.44531,3.34701-2.16018,7.12094-3.24027,11.32029-3.24027,.79109,0,1.78023,.01503,2.96706,.0451,.75755,.01967,1.3972,.04547,1.91925,.07739,.43632,.02668,.77422,.38617,.77422,.82331v9.19105c0,.51185-.45518,.89993-.95959,.81297-.40486-.0698-.91431-.15164-1.5283-.24585-1.29393-.19768-2.65551-.29689-4.08548-.29689-3.40864,0-6.44409,.70803-9.10674,2.1226-2.66302,1.41532-4.7627,3.36279-6.29903,5.84317-1.53708,2.48038-2.30525,5.30274-2.30525,8.4671v43.54497c0,.45534-.36912,.82446-.82446,.82446h-9.1238c-.45534,0-.82446-.36912-.82446-.82446Z"/>
      <path class="cls-2" d="M425.34423,106.22507c-5.84279,0-11.00122-1.48296-15.47454-4.4504-4.47332-2.96668-7.97328-7.16679-10.49876-12.59881-2.52623-5.43203-3.78859-11.85996-3.78859-19.28606,0-7.36371,1.26236-13.75406,3.78859-19.17181,2.52547-5.41624,6.04047-9.60056,10.54461-12.55296,4.50339-2.9509,9.70692-4.4271,15.61134-4.4271,4.56464,0,8.17773,.75313,10.84113,2.2594,2.66265,1.50627,4.70144,3.21096,6.11676,5.11258,1.27708,1.71634,2.29975,3.1547,3.06911,4.31341,.15317,.23068,.4069,.36548,.68379,.36548h.46937V12.10371c0-.45534,.36912-.82446,.82446-.82446h9.1238c.45534,0,.82446,.36912,.82446,.82446V103.94019c0,.45534-.36912,.82446-.82446,.82446h-8.75851c-.45534,0-.82446-.36912-.82446-.82446v-9.12418c0-.45534-.36912-.82446-.82446-.82446h0c-.28248,0-.54001,.14074-.69199,.37886-.77366,1.21223-1.81989,2.69143-3.13952,4.43758-1.46079,1.93244-3.54581,3.65142-6.25393,5.15768-2.70887,1.50627-6.31481,2.2594-10.8182,2.2594Zm1.46079-9.67723c4.32074,0,7.97253-1.13271,10.955-3.40037,2.98209-2.26691,5.24975-5.41624,6.80149-9.44873,1.55211-4.03249,2.32817-8.69635,2.32817-13.99083,0-5.23435-.76102-9.82154-2.28232-13.76308-1.52205-3.94079-3.77393-7.0142-6.75602-9.22099-2.98247-2.20603-6.66432-3.30942-11.04632-3.30942-4.56502,0-8.3615,1.16427-11.38906,3.49207-3.02831,2.32855-5.29523,5.47787-6.80149,9.44948-1.50627,3.97086-2.2594,8.42201-2.2594,13.35194,0,4.99082,.76817,9.51713,2.30487,13.57969,1.53633,4.06256,3.81865,7.28855,6.84734,9.67723,3.02756,2.38943,6.7936,3.58302,11.29774,3.58302Z"/>
      <path class="cls-2" d="M489.71707,106.40771c-4.44363,0-8.47537-.84408-12.09672-2.53299-3.62173-1.68891-6.49746-4.13847-8.6272-7.34943-2.13049-3.21021-3.19518-7.09839-3.19518-11.66303,0-4.01671,.79071-7.28028,2.37365-9.79148,1.5818-2.51044,3.69726-4.48046,6.34488-5.91081s5.57596-2.50293,8.78692-3.21848c3.21021-.7148,6.44334-1.28529,9.70015-1.71146,4.26023-.54794,7.72149-.96584,10.38489-1.25522,2.66227-.28938,4.61012-.7832,5.84279-1.48372,1.2323-.69977,1.84863-1.91741,1.84863-3.65217v-.36454c0-4.50376-1.22553-8.00335-3.67472-10.49876-2.44994-2.49541-6.15509-3.74311-11.11509-3.74311-5.14302,0-9.17514,1.12594-12.09635,3.37782-2.67152,2.05914-4.61779,4.24523-5.8388,6.55884-.19447,.36849-.61875,.54771-1.01113,.40759l-8.69723-3.1059c-.45293-.16175-.67827-.68053-.47711-1.11739,1.78209-3.87031,4.10342-6.92237,6.96339-9.15679,3.058-2.38868,6.40539-4.06256,10.04214-5.02088,3.63601-.95908,7.2194-1.43787,10.75018-1.43787,2.25151,0,4.84538,.26608,7.78275,.79823,2.93624,.53291,5.78153,1.62051,8.53588,3.26433,2.75397,1.64306,5.04418,4.12344,6.86989,7.44038,1.82608,3.31694,2.73894,7.75982,2.73894,13.32864v45.37068c0,.45534-.36912,.82446-.82446,.82446h-9.1238c-.45534,0-.82446-.36912-.82446-.82446v-8.67012h-.54794c-.73021,1.52205-1.94785,3.14933-3.65179,4.88409-1.70432,1.73476-3.97123,3.21096-6.80112,4.42785-2.83026,1.21689-6.28437,1.82571-10.36196,1.82571Zm1.64306-9.67723c4.26023,0,7.85866-.83656,10.79565-2.51044,2.93624-1.67313,5.15806-3.83406,6.6647-6.48205,1.50627-2.64724,2.2594-5.43203,2.2594-8.35286v-8.29317c0-.60077-.62264-1.00941-1.16407-.74906-.48658,.23397-1.09526,.45586-1.82591,.66533-1.53708,.44196-3.30228,.82228-5.29485,1.14172-1.9937,.31944-3.92576,.59304-5.79732,.82153-1.87156,.22774-3.38571,.41866-4.5421,.57049-2.8002,.36529-5.4091,.95156-7.82822,1.75731-2.41949,.8065-4.36734,2.00835-5.84317,3.60632-1.4762,1.59721-2.21355,3.76566-2.21355,6.5046,0,3.74311,1.39202,6.56623,4.17643,8.46786,2.78479,1.90162,6.32233,2.85243,10.61301,2.85243Z"/>
      <path class="cls-2" d="M542.77036,62.58697v41.35322c0,.45534-.36912,.82446-.82446,.82446h-9.1238c-.45534,0-.82446-.36912-.82446-.82446V35.47487c0-.45534,.36912-.82446,.82446-.82446h8.75851c.45534,0,.82446,.36912,.82446,.82446v10.13129h.39846c.3148,0,.59735-.18304,.7361-.46561,1.64277-3.34573,4.06395-6.05874,7.26452-8.13904,3.34738-2.17522,7.66887-3.26357,12.96373-3.26357,4.74729,0,8.90117,.96584,12.46201,2.89828,3.56047,1.93319,6.32909,4.85402,8.30776,8.764,1.97754,3.91073,2.96706,8.84893,2.96706,14.81311v43.72686c0,.45534-.36912,.82446-.82446,.82446h-9.1238c-.45534,0-.82446-.36912-.82446-.82446V60.94316c0-5.50719-1.43073-9.80651-4.29105-12.89495-2.8607-3.08844-6.78646-4.63379-11.7769-4.63379-3.43908,0-6.5046,.74637-9.19806,2.23685-2.69309,1.49198-4.81569,3.66795-6.3678,6.5279-1.55174,2.8607-2.3278,6.33022-2.3278,10.40781Z"/>
      <path class="cls-2" d="M628.42938,35.47487v7.48037c0,.45534-.36912,.82446-.82446,.82446h-34.68597c-.45534,0-.82446-.36912-.82446-.82446v-7.48037c0-.45534,.36912-.82446,.82446-.82446h34.68597c.45534,0,.82446,.36912,.82446,.82446Zm-24.92035-17.62263h9.1238c.45534,0,.82446,.36912,.82446,.82446V84.67961c0,3.04335,.44872,5.31853,1.34654,6.82479,.89745,1.50627,2.0542,2.51044,3.46915,3.01253s2.91369,.75313,4.49625,.75313c1.18682,0,2.16056-.0684,2.92158-.20519,.38779-.07016,.73628-.13406,1.04521-.192,.4365-.08187,.85876,.19494,.95683,.62809l1.85039,8.17281c.09459,.41777-.1411,.84125-.55032,.96781-.63655,.19686-1.41799,.39729-2.34378,.60261-1.30859,.28863-2.96706,.43369-4.97541,.43369-3.04335,0-6.0183-.65467-8.92409-1.96326-2.90617-1.30784-5.31064-3.30116-7.21226-5.97996-1.902-2.6773-2.85281-6.05513-2.85281-10.13347V18.67671c0-.45534,.36912-.82446,.82446-.82446Z"/>
    </g>
    <g>
      <path class="cls-1" d="M13.63788,28.29472h54.9283v4.5419c0,11.38115-9.24005,20.62119-20.62119,20.62119H-6.98331v-4.5419c0-11.38115,9.24005-20.62119,20.62119-20.62119Z" transform="translate(-19.88528 33.74521) rotate(-45)"/>
      <path class="cls-1" d="M20.96719,55.52836H99.97798v2.62855c0,12.43715-10.09739,22.53454-22.53454,22.53454H20.96719v-25.16309h0Z" transform="translate(-30.44896 62.7095) rotate(-45)"/>
      <path class="cls-1" d="M49.87613,85.15415h53.68538c12.06713,0,21.86411,9.79698,21.86411,21.86411v3.29898h-53.68538c-12.06713,0-21.86411-9.79698-21.86411-21.86411v-3.29898h0Z" transform="translate(-43.43723 90.60465) rotate(-45)"/>
    </g>
  </g>
</svg>