<?xml version="1.0" encoding="UTF-8"?>
<svg id="b" data-name="Layer 2" xmlns="http://www.w3.org/2000/svg" width="1405.277" height="227.441" viewBox="0 0 1405.277 227.441">
  <g id="c" data-name="Layer 1">
    <g>
      <path d="M158.873,186.828l-100.324-41.035c-2.751-1.125-4.549-3.803-4.549-6.775V39.472c0-2.644,2.68-4.443,5.127-3.442l100.324,41.035c2.751,1.125,4.549,3.803,4.549,6.775v99.546c0,2.644-2.68,4.443-5.127,3.442Z" fill="#288db1" stroke-width="0"/>
      <path d="M131.873,201.23l-100.324-41.035c-2.751-1.125-4.549-3.803-4.549-6.775V53.874c0-2.644,2.68-4.443,5.127-3.442l100.324,41.035c2.751,1.125,4.549,3.803,4.549,6.775v99.546c0,2.644-2.68,4.443-5.127,3.442Z" fill="#28a0ad" stroke-width="0"/>
      <path d="M104.873,215.632L4.549,174.597c-2.751-1.125-4.549-3.803-4.549-6.775v-99.546c0-2.644,2.68-4.443,5.127-3.442l100.324,41.035c2.751,1.125,4.549,3.803,4.549,6.775v99.546c0,2.644-2.68,4.443-5.127,3.442Z" fill="#2fc6c1" stroke-width="0"/>
    </g>
    <g>
      <path d="M346.621,77.771v12.176c6.087-10.707,14.274-15.535,26.659-15.535,12.595,0,21.832,5.668,26.449,16.164,6.508-11.125,15.534-16.164,29.388-16.164,9.866,0,18.053,3.15,23.511,9.027,5.877,6.508,7.767,13.225,7.767,27.918v63.605h-26.659v-58.566c0-13.225-4.828-19.523-14.904-19.523-9.866,0-15.534,7.139-15.534,19.523v58.566h-26.659v-57.727c0-13.436-5.038-20.363-14.694-20.363-10.076,0-15.324,6.928-15.324,20.363v57.727h-26.659v-97.191h26.659Z" fill="#fdffff" stroke-width="0"/>
      <path d="M503.34,132.769c2.309,13.434,12.175,21.832,25.399,21.832,9.866,0,18.263-4.828,22.461-12.596l24.56,6.717c-9.656,18.893-26.659,29.598-47.231,29.598-30.857,0-52.898-21.83-52.898-52.059,0-30.438,21.201-51.85,51.219-51.85,31.067,0,52.689,21.832,52.689,53.109l-.21,5.248h-75.989ZM552.041,117.445c-2.309-12.805-11.545-20.572-24.77-20.572-12.805,0-21.412,7.348-23.93,20.572h48.7Z" fill="#fdffff" stroke-width="0"/>
      <path d="M621.647,77.771v12.176c6.087-10.707,14.274-15.535,26.659-15.535,12.595,0,21.831,5.668,26.449,16.164,6.508-11.125,15.534-16.164,29.388-16.164,9.866,0,18.053,3.15,23.511,9.027,5.878,6.508,7.767,13.225,7.767,27.918v63.605h-26.659v-58.566c0-13.225-4.828-19.523-14.903-19.523-9.866,0-15.534,7.139-15.534,19.523v58.566h-26.659v-57.727c0-13.436-5.038-20.363-14.694-20.363-10.076,0-15.324,6.928-15.324,20.363v57.727h-26.659v-97.191h26.659Z" fill="#fdffff" stroke-width="0"/>
      <path d="M779.814,174.962h-26.659V34.949h26.659v54.578c9.236-10.707,18.263-15.115,31.487-15.115,28.549,0,48.91,21.832,48.91,52.48,0,30.438-19.312,51.428-47.65,51.428-14.694,0-24.141-4.617-32.747-15.953v12.596ZM779.394,127.101c0,17.424,10.706,29.598,26.03,29.598,15.533,0,26.449-12.174,26.449-29.598,0-17.213-11.126-30.229-25.82-30.229-14.903,0-26.659,13.436-26.659,30.229Z" fill="#fdffff" stroke-width="0"/>
      <path d="M900.973,132.769c2.31,13.434,12.175,21.832,25.399,21.832,9.866,0,18.263-4.828,22.461-12.596l24.561,6.717c-9.656,18.893-26.659,29.598-47.231,29.598-30.857,0-52.898-21.83-52.898-52.059,0-30.438,21.201-51.85,51.22-51.85,31.067,0,52.688,21.832,52.688,53.109l-.21,5.248h-75.989ZM949.673,117.445c-2.309-12.805-11.545-20.572-24.77-20.572-12.805,0-21.412,7.348-23.931,20.572h48.7Z" fill="#fdffff" stroke-width="0"/>
      <path d="M1019.28,77.771v14.275c2.729-7.139,4.618-10.076,8.606-13.016,4.198-2.939,9.866-4.619,15.744-4.619.63,0,1.68,0,3.148.211v27.289c-2.099-.211-4.198-.42-5.668-.42-7.347,0-14.063,3.359-17.843,8.816-3.148,4.408-3.988,8.607-3.988,17.842v46.812h-26.659v-97.191h26.659Z" fill="#fdffff" stroke-width="0"/>
      <path d="M1096.001,78.191v13.436c7.347-11.127,15.534-15.744,27.499-15.744,13.225,0,21.621,5.668,26.029,17.633,7.138-12.385,16.164-17.633,30.647-17.633,11.126,0,19.522,3.568,24.561,10.285,4.618,6.088,5.878,11.545,5.878,26.869v61.926h-15.954v-58.146c0-11.756-.42-14.484-2.729-18.473-2.939-5.039-9.236-8.188-16.794-8.188-14.063,0-21.831,9.447-21.831,26.66v58.146h-15.953v-57.938c0-9.445-.84-14.273-3.148-18.473-2.729-5.457-8.606-8.396-15.744-8.396-14.064,0-22.461,10.076-22.461,26.869v57.938h-15.953v-96.771h15.953Z" fill="#fdffff" stroke-width="0"/>
      <path d="M1249.278,51.113c0,5.666-4.618,10.074-10.286,10.074s-10.076-4.408-10.076-10.285,4.408-10.285,10.286-10.285c5.668,0,10.076,4.617,10.076,10.496ZM1246.968,174.962h-15.953v-96.771h15.953v96.771Z" fill="#fdffff" stroke-width="0"/>
      <path d="M1282.567,78.191v13.645c8.396-11.336,16.793-15.953,28.759-15.953,8.816,0,16.793,2.938,22.461,7.977,6.087,5.877,8.187,12.596,8.187,25.82v65.283h-15.954v-61.715c0-8.607-1.049-13.225-3.568-16.584-2.938-3.988-8.606-6.508-15.113-6.508-7.138,0-13.645,2.729-18.473,8.188-4.618,5.037-6.298,9.656-6.298,17.633v58.986h-15.953v-96.771h15.953Z" fill="#fdffff" stroke-width="0"/>
      <path d="M1383.869,155.23c.21,4.828,1.47,5.877,7.347,5.877h7.348v13.855h-14.904c-11.336-.211-15.744-4.408-15.744-15.115v-67.592h-13.435v-14.064h13.435v-30.438h15.954v30.438h14.694v14.064h-14.694v62.975Z" fill="#fdffff" stroke-width="0"/>
    </g>
  </g>
</svg>