<?xml version="1.0" encoding="UTF-8"?>
<svg id="Layer_2" data-name="Layer 2" xmlns="http://www.w3.org/2000/svg" viewBox="0 0 534.75 219.11">
  <defs>
    <style>
      .cls-1 {
        fill: #121919;
      }
    </style>
  </defs>
  <g id="Layer_1-2" data-name="Layer 1">
    <g>
      <path class="cls-1" d="M65.46,75.92v-14.35c0-14.65,6.28-25.11,25.71-25.11h5.68V0h-9.27C47.83,0,26.31,23.91,26.31,65.76v10.16H0v30.49H26.31v69.95c0,21.63,17.53,39.16,39.16,39.16h0V106.41h56.79v109.1h39.16V75.92H65.46Z"/>
      <path class="cls-1" d="M157.82,171.58h36.77c0,8.07,6.88,16.74,20.63,16.74,11.36,0,20.03-5.68,20.03-13.75,0-5.98-4.78-8.97-15.24-11.66l-18.53-4.48c-35.87-9.57-40.65-29.59-40.65-44.24,0-21.52,22.42-41.85,54.7-41.85,25.41,0,55.3,12.26,55,45.44h-37.36c0-9.57-7.77-14.65-17.04-14.65s-16.14,5.08-16.14,12.26c0,6.58,5.98,9.86,13.75,11.96l23.02,5.98c33.48,8.97,37.66,29.89,37.66,41.25,0,29.29-29.89,44.54-58.59,44.54s-57.69-16.74-57.99-47.53Z"/>
      <path class="cls-1" d="M263.04,145.27c0-44.24,35.87-72.94,76.52-72.94,25.41,0,45.73,11.66,58.89,29.89l-29.59,20.63c-6.28-8.67-17.93-14.05-29-14.05-22.12,0-37.07,16.14-37.07,36.47s14.95,37.36,37.07,37.36c11.06,0,22.72-5.38,29-14.05l29.59,20.63c-13.15,18.23-33.48,29.89-58.89,29.89-40.65,0-76.52-29.59-76.52-73.83Z"/>
      <path class="cls-1" d="M495.6,75.92h39.16v100.44c0,21.63-17.53,39.16-39.16,39.16h0v-20.03c-9.27,14.35-27.2,23.61-46.03,23.61-38.56,0-67.26-29.89-67.26-73.23s28.1-73.53,68.15-73.53c17.94,0,35.87,7.77,45.14,22.12v-18.53Zm-1.2,69.95c0-21.22-17.04-37.07-36.47-37.07s-35.57,16.74-35.57,37.07,15.24,36.77,35.87,36.77,36.17-16.74,36.17-36.77Z"/>
    </g>
    <rect class="cls-1" x="122.26" y="0" width="39.16" height="39.16"/>
  </g>
</svg>